<?xml version="1.0" encoding="utf-8"?>
<!-- Generator: Adobe Illustrator 21.0.2, SVG Export Plug-In . SVG Version: 6.00 Build 0)  -->
<svg version="1.1" id="Layer_1" xmlns="http://www.w3.org/2000/svg" xmlns:xlink="http://www.w3.org/1999/xlink" x="0px" y="0px"
	 viewBox="0 0 792 150" style="enable-background:new 0 0 792 150;" xml:space="preserve">
<style type="text/css">
	.st0{fill-rule:evenodd;clip-rule:evenodd;fill:#D8D8D8;}
</style>
<path class="st0" d="M33.5,65.7c2.2-6.1,3.5-12.6,6.6-18.2c10.2-18.4,26.3-28.3,47.3-28.4c20.9-0.1,36.7,9.8,47.4,27.7
	c0.5,0.8,0.8,1.6,1.2,2.4c0.1,0.3,0.2,0.7,0.4,1.6c-6.8,0-13.4,0.1-19.9-0.1c-1,0-2.1-1.2-3-2.1c-11.8-11.6-27.8-14.4-42.3-7.2
	c-13.9,6.9-22.1,23.1-19.6,39.1c2.4,15.3,14.5,27.6,30,30.4c16.2,3,34-7,39.2-22.4c-11.3,0-22.5,0-34.4,0c0-5.8-0.1-11.1,0.2-16.4
	c0-0.6,2.3-1.6,3.5-1.6c15.5-0.1,30.9-0.1,46.4-0.1c1.3,0,2.7,0,4.5,0c0-17.2,0-34,0-51c19.1,0,37.7,0,56.6,0c0,5.8,0,11.4,0,17.5
	c-12.8,0-25.5,0-38.5,0c0,9.4,0,18.2,0,27.6c12.9,0,25.6,0,38.5,0c0,6.1,0,11.7,0,17.7c-12.8,0-25.5,0-38.3,0
	c-0.2,1.2-0.4,2-0.4,2.8c0,8,0.1,16.1-0.1,24.1c0,2.5,0.8,3.2,3.2,3.2c11.9-0.1,23.9-0.1,35.8,0c2.8,0,3.5-1,3.5-3.7
	c-0.1-28.3-0.1-56.6-0.1-84.8c0-1.4,0-2.7,0-4.6c6.2,0,12.1-0.1,17.9,0.1c1.1,0.1,2.3,1.7,3,2.8c14.5,23.1,28.9,46.2,43.3,69.3
	c0.5,0.8,1.1,1.6,2.6,2.4c0-12.3,0-24.6,0-36.9c0-12.4,0-24.9,0-37.6c18.9,0,37.6,0,56.6,0c0,5.7,0,11.4,0,17.4
	c-12.8,0-25.4,0-38.3,0c0,9.3,0,18.3,0,27.6c7.3,0,14.4,0,21.6,0c4.8,0,9.6-0.1,14.3,0.1c1,0,2.6,1.3,2.6,2
	c0.2,5.1,0.1,10.2,0.1,15.7c-13.1,0-25.7,0-38.6,0c0,10.1,0,19.8,0,29.8c14,0,27.9,0,42.2,0c0-30.9,0-61.6,0-92.1
	c0.6-0.4,0.8-0.7,1-0.7c14.3,0.3,28.7-0.1,42.9,1.2c18.4,1.8,30.7,17.2,27.3,39c-2.2,14-10.4,22.7-24.3,25.9
	c-0.7,0.2-1.4,0.5-2.5,0.9c5.9,9.4,11.7,18.6,17.9,28.3c3.4-4.5,6.6-8.6,9.7-12.7c20-26.3,39.9-52.6,59.8-79
	c2.1-2.8,4.1-3.9,7.7-3.9c30.4,0.2,60.8,0.1,91.2,0.1c1.5,0,3,0,4.9,0c0,14.1,0,27.9,0,41.8c9.2-26,26.6-42,54.6-41.6
	c27.6,0.3,44.6,16.3,53.3,42.2c0-3.4,0-6.9,0-10.3c0-9.6,0.1-19.1-0.1-28.7c0-2.6,0.8-3.5,3.4-3.4c4.9-0.1,10.9-0.6,14.8,0.6
	c3.9,2.1,5.9,7.7,8.6,12c11.8,18.9,23.6,37.9,35.4,56.9c1.2,1.9,2.4,3.7,4.4,5.3c0-24.3,0-48.5,0-73.1c6.2,0,11.9,0,17.9,0
	c0,36.2,0,72.5,0,109.1c-5.6,0-11.1,0.1-16.6-0.1c-0.8,0-1.8-1-2.4-1.8c-11.7-18.7-23.3-37.5-35-56.3c-3.9-6.3-7.8-12.5-12.3-19.7
	c0,26.5,0,52,0,77.7c-6.3,0-12.1,0-18.3,0c0-14.3,0-28.5,0-42.8c-8.8,26.8-26.3,42.3-55,42.8c-12.4,0.2-23.6-4.4-33.2-12.3
	c-9.5-7.8-15.5-17.9-19.3-29.5c0,13.8,0,27.7,0,41.8c-6,0-11.8,0-18,0c0-15.3,0-30.7,0-46.1c0-15.3,0-30.6,0-46.3
	c-6.9,0-13.6,0-20.7,0c0,30.7,0,61.4,0,92.4c-6.3,0-12.2,0-18.4,0c0-30.8,0-61.4,0-92.4c-7.1,0-13.9,0-21.2,0c0,30.8,0,61.5,0,92.4
	c-6.2,0-11.9,0-18.1,0c0-7.6,0-15.2,0-23c-1.4-0.1-2.3-0.3-3.3-0.3c-14,0-27.9,0-41.9-0.1c-2.2,0-3.7,0.6-5,2.5
	c-4.7,6.5-9.6,12.9-14.5,19.3c-0.7,0.9-2.1,1.6-3.2,1.7c-6,0.2-12.1,0-18.1,0.1c-2.1,0-3.3-0.6-4.5-2.5c-9.4-14.6-18.9-29-28.4-43.5
	c-0.5-0.8-1.1-1.6-2.3-3.2c0,16.9,0,32.8,0,49.1c-1.7,0-2.9,0-4.1,0c-23.8,0-47.5-0.1-71.3,0.1c-2.8,0-4.2-0.9-5.6-3.2
	c-14.5-23.6-29.1-47.2-43.7-70.8c-0.7-1.1-1.4-2.2-2.9-3.1c0,25.5,0,51.1,0,76.8c-26.2,0-52.1,0-78.2,0c0-13.3,0-26.7,0-40.1
	c-0.3-0.1-0.6-0.2-0.9-0.2c-0.4,1.2-0.9,2.3-1.3,3.5c-8.1,24.1-33.5,40.4-58.4,36.7c-24.6-3.7-42-21.5-46.4-44.4
	c-0.1-0.7-0.5-1.4-0.7-2C33.5,77.2,33.5,71.4,33.5,65.7z M617.9,111.1c20.1,0.1,36.3-16.1,36.4-36.4c0.1-20.3-15.8-37.1-35.3-37.2
	c-20.6-0.1-37.1,15.9-37.2,36C581.8,94.6,597.6,111,617.9,111.1z M347,72.5c9.7,0.3,19.1,0.4,27.5-4.7c6.1-3.6,8-9.3,7.4-16.1
	c-0.6-6-3.8-10-9.3-12.2c-8.3-3.3-16.9-2.7-25.7-2.4C347,49,347,60.6,347,72.5z M433.8,88.1c11.8,0,22.9,0,34,0
	c0-14.8,0-29.2,0-44.7C456.2,58.6,445.2,73.1,433.8,88.1z"/>
</svg>
